<svg width="24" height="24" viewBox="0 0 24 24" fill="none" xmlns="http://www.w3.org/2000/svg">
<path fill-rule="evenodd" clip-rule="evenodd" d="M23.5 13.5H20.254C20.044 14.367 19.702 15.681 19.25 16.421L21.546 18.718L18.718 21.546L16.42 19.25C15.681 19.702 14.367 20.044 13.5 20.254V23.5H10.5V20.254C9.633 20.044 8.319 19.703 7.578 19.249L5.282 21.546L2.453 18.718L4.75 16.421C4.298 15.681 3.956 14.367 3.746 13.5H0.5V10.5H3.746C3.956 9.633 4.298 8.319 4.75 7.579L2.453 5.283L5.282 2.454L7.579 4.75C8.319 4.298 9.633 3.957 10.5 3.748V0.5H13.5V3.748C14.367 3.957 15.68 4.298 16.42 4.75L18.717 2.454L21.546 5.283L19.25 7.578C19.702 8.319 20.044 9.633 20.253 10.5H23.5V13.5ZM15.182 15.182C16.9393 13.4246 16.9393 10.5754 15.182 8.81802C13.4246 7.06066 10.5754 7.06066 8.81802 8.81802C7.06066 10.5754 7.06066 13.4246 8.81802 15.182C10.5754 16.9393 13.4246 16.9393 15.182 15.182Z" fill="#F2F2F2"/>
</svg>
